<svg width="320" height="320" viewBox="0 0 320 320" fill="none" xmlns="http://www.w3.org/2000/svg">
  <rect width="320" height="320" rx="24" fill="#1F1F1F"/>
  <circle cx="160" cy="160" r="120" fill="#292B3D"/>
  <path d="M160 80c-13 0-24 11-24 24v12h48v-12c0-13-11-24-24-24z" fill="#FFD580"/>
  <circle cx="160" cy="112" r="8" fill="#000"/>
  <path d="M136 148c-8 4-16 12-16 24 0 8 4 20 16 20h48c12 0 16-12 16-20 0-12-8-20-16-24" fill="#FFB86C"/>
  <path d="M128 212c-8 0-16 4-16 16s8 16 16 16h64c8 0 16-4 16-16s-8-16-16-16H128z" fill="#8BE9FD"/>
  <path d="M144 244c-4 12-4 24-16 24s-16-12-16-20c0-8 4-20 16-20m64 16c4 12 4 24 16 24s16-12 16-20c0-8-4-20-16-20" stroke="#50FA7B" stroke-width="2"/>
  <text x="160" y="300" fill="#F8F8F2" font-size="16" font-family="monospace" text-anchor="middle">
    Doing Vondami all time ✨
  </text>
</svg>
